<svg width="222" height="404" viewBox="0 0 222 404" fill="none" xmlns="http://www.w3.org/2000/svg">
<path fill-rule="evenodd" clip-rule="evenodd" d="M187.549 0H190.58C190.513 0.472552 190.446 0.940586 190.381 1.40352L190.381 1.40402L190.381 1.40438C190 4.09174 189.644 6.60721 189.299 8.83707C187.426 20.9433 185.979 33.4256 184.528 45.9397C184.251 48.3328 183.973 50.7269 183.693 53.1199C181.946 68.0093 180.079 82.8397 177.37 96.9333C174.444 112.161 170.309 122.63 165.268 130.709C160.227 138.787 154.33 144.392 148.035 149.917C118.598 175.756 85.3511 180.84 54.3858 170.45C40.3244 165.732 26.7336 156.247 13.3705 146.445C11.8931 145.362 10.4184 144.274 8.9459 143.188L8.94212 143.185L8.94198 143.185C5.95477 140.982 2.97611 138.786 0 136.64V132.947C3.58832 135.508 7.15981 138.142 10.7179 140.767L10.7262 140.773C12.2013 141.861 13.6741 142.948 15.1448 144.026C28.5468 153.857 41.7845 163.057 55.3402 167.606C85.2886 177.655 117.419 172.8 146.056 147.662C152.293 142.188 157.92 136.817 162.722 129.121C167.524 121.427 171.549 111.326 174.424 96.3671C177.111 82.3912 178.967 67.6567 180.713 52.7704C180.993 50.3858 181.27 47.9971 181.547 45.6071L181.547 45.6059C182.997 33.0932 184.452 20.5454 186.334 8.37847C186.668 6.21849 187.018 3.75124 187.394 1.09621L187.394 1.09503C187.445 0.733405 187.497 0.368293 187.549 0ZM0 397.967C1.61346 395.37 3.29563 393.045 5.04591 390.966C12.7574 381.805 21.7117 377.503 31.6567 375.656C44.3624 373.297 57.075 374.698 69.5268 376.07L69.5275 376.07C70.062 376.129 70.5961 376.188 71.1297 376.246C84.1732 377.676 96.9406 378.9 109.626 375.9C119.245 373.625 128.819 367.6 138.114 358.84C147.401 350.088 156.33 338.68 164.664 325.779C184.181 295.567 203.117 255.197 209.271 199.281C212.139 173.232 212.808 146.668 213.104 119.941C213.164 114.491 213.209 109.034 213.254 103.573V103.572V103.57C213.428 82.2711 213.604 60.9162 214.704 39.7479C214.74 39.054 214.776 38.3518 214.812 37.6425C215.191 30.2678 215.609 22.1183 216.484 14.3809C217.053 9.35096 217.819 4.44422 218.911 0H222.003C220.867 4.42246 220.062 9.44231 219.465 14.7179C218.601 22.359 218.187 30.4172 217.808 37.8074C217.771 38.5125 217.736 39.2116 217.7 39.9036C216.603 61.0002 216.429 82.2714 216.254 103.564V103.564C216.209 109.034 216.164 114.505 216.104 119.974C215.808 146.715 215.138 173.404 212.253 199.61C206.038 256.075 186.902 296.883 167.184 327.406C158.769 340.434 149.69 352.053 140.172 361.023C130.663 369.985 120.635 376.379 110.317 378.82C97.0587 381.955 83.7978 380.653 70.8028 379.228C70.3512 379.179 69.8999 379.129 69.449 379.08L69.3445 379.068C56.7754 377.685 44.4634 376.33 32.2043 378.606C22.8413 380.344 14.5435 384.342 7.34103 392.898C4.7597 395.965 2.30917 399.629 0 404.003V397.967Z" fill="#FFFEFE"/>
</svg>
